# xmcd
#
# Track frame offsets:
#	150
#	14578
#	35363
#	51126
#	75261
#	89966
#	116302
#	130623
#	152566
#	163823
#
# Disc length: 2481 seconds
#
# Revision: 0
# Processed by: cddbd v1.5.1PL0 Copyright (c) Steve Scherf et al.
# Submitted via: dBpowerAMP V4.0
#
DISCID=7309af0a
DTITLE=Sam Lowry - Between The Lotus and The Han
DYEAR=2002
DGENRE=Alt. Country
TTITLE0=Sweet Thorn
TTITLE1=One More Anchor
TTITLE2=You Test The Water
TTITLE3=For Waldheim
TTITLE4=Your Theory
TTITLE5=Empty Trophy
TTITLE6=Amputee
TTITLE7=Re Di Tutto
TTITLE8=Ink For The Pen
TTITLE9=If I should Die Tonight
EXTD=
EXTT0=
EXTT1=
EXTT2=
EXTT3=
EXTT4=
EXTT5=
EXTT6=
EXTT7=
EXTT8=
EXTT9=
PLAYORDER=
